<mxfile host="app.diagrams.net" agent="Mozilla/5.0 (Windows NT 10.0; Win64; x64) AppleWebKit/537.36 (KHTML, like Gecko) Chrome/133.0.0.0 Safari/537.36 Edg/133.0.0.0" version="26.0.16">
  <diagram id="C5RBs43oDa-KdzZeNtuy" name="Page-1">
    <mxGraphModel dx="2006" dy="665" grid="1" gridSize="10" guides="1" tooltips="1" connect="1" arrows="1" fold="1" page="1" pageScale="1" pageWidth="827" pageHeight="1169" math="0" shadow="0">
      <root>
        <mxCell id="WIyWlLk6GJQsqaUBKTNV-0" />
        <mxCell id="WIyWlLk6GJQsqaUBKTNV-1" parent="WIyWlLk6GJQsqaUBKTNV-0" />
        <mxCell id="WIyWlLk6GJQsqaUBKTNV-2" value="" style="rounded=0;html=1;jettySize=auto;orthogonalLoop=1;fontSize=11;endArrow=block;endFill=0;endSize=8;strokeWidth=1;shadow=0;labelBackgroundColor=none;edgeStyle=orthogonalEdgeStyle;" parent="WIyWlLk6GJQsqaUBKTNV-1" source="WIyWlLk6GJQsqaUBKTNV-3" target="WIyWlLk6GJQsqaUBKTNV-6" edge="1">
          <mxGeometry relative="1" as="geometry" />
        </mxCell>
        <mxCell id="WIyWlLk6GJQsqaUBKTNV-3" value="输入订单" style="rounded=1;whiteSpace=wrap;html=1;fontSize=12;glass=0;strokeWidth=1;shadow=0;" parent="WIyWlLk6GJQsqaUBKTNV-1" vertex="1">
          <mxGeometry x="160" y="80" width="120" height="40" as="geometry" />
        </mxCell>
        <mxCell id="WIyWlLk6GJQsqaUBKTNV-4" value="Yes" style="rounded=0;html=1;jettySize=auto;orthogonalLoop=1;fontSize=11;endArrow=block;endFill=0;endSize=8;strokeWidth=1;shadow=0;labelBackgroundColor=none;edgeStyle=orthogonalEdgeStyle;" parent="WIyWlLk6GJQsqaUBKTNV-1" source="WIyWlLk6GJQsqaUBKTNV-6" target="WIyWlLk6GJQsqaUBKTNV-10" edge="1">
          <mxGeometry y="20" relative="1" as="geometry">
            <mxPoint as="offset" />
          </mxGeometry>
        </mxCell>
        <mxCell id="WIyWlLk6GJQsqaUBKTNV-5" value="No" style="edgeStyle=orthogonalEdgeStyle;rounded=0;html=1;jettySize=auto;orthogonalLoop=1;fontSize=11;endArrow=block;endFill=0;endSize=8;strokeWidth=1;shadow=0;labelBackgroundColor=none;" parent="WIyWlLk6GJQsqaUBKTNV-1" source="WIyWlLk6GJQsqaUBKTNV-6" target="WIyWlLk6GJQsqaUBKTNV-7" edge="1">
          <mxGeometry y="10" relative="1" as="geometry">
            <mxPoint as="offset" />
          </mxGeometry>
        </mxCell>
        <mxCell id="WIyWlLk6GJQsqaUBKTNV-6" value="订单是否在有效期内" style="rhombus;whiteSpace=wrap;html=1;shadow=0;fontFamily=Helvetica;fontSize=12;align=center;strokeWidth=1;spacing=6;spacingTop=-4;" parent="WIyWlLk6GJQsqaUBKTNV-1" vertex="1">
          <mxGeometry x="170" y="170" width="100" height="80" as="geometry" />
        </mxCell>
        <mxCell id="WIyWlLk6GJQsqaUBKTNV-7" value="订单失效结算" style="rounded=1;whiteSpace=wrap;html=1;fontSize=12;glass=0;strokeWidth=1;shadow=0;" parent="WIyWlLk6GJQsqaUBKTNV-1" vertex="1">
          <mxGeometry x="320" y="190" width="120" height="40" as="geometry" />
        </mxCell>
        <mxCell id="h7A2LRsJtxxZ7yJCECU2-5" value="Yes" style="edgeStyle=orthogonalEdgeStyle;rounded=0;orthogonalLoop=1;jettySize=auto;html=1;exitX=1;exitY=0.5;exitDx=0;exitDy=0;entryX=0;entryY=0.5;entryDx=0;entryDy=0;" edge="1" parent="WIyWlLk6GJQsqaUBKTNV-1" source="WIyWlLk6GJQsqaUBKTNV-10" target="h7A2LRsJtxxZ7yJCECU2-3">
          <mxGeometry relative="1" as="geometry" />
        </mxCell>
        <mxCell id="h7A2LRsJtxxZ7yJCECU2-70" value="No" style="edgeStyle=orthogonalEdgeStyle;rounded=0;orthogonalLoop=1;jettySize=auto;html=1;exitX=0.5;exitY=1;exitDx=0;exitDy=0;entryX=0.5;entryY=0;entryDx=0;entryDy=0;" edge="1" parent="WIyWlLk6GJQsqaUBKTNV-1" source="WIyWlLk6GJQsqaUBKTNV-10" target="h7A2LRsJtxxZ7yJCECU2-46">
          <mxGeometry relative="1" as="geometry" />
        </mxCell>
        <mxCell id="WIyWlLk6GJQsqaUBKTNV-10" value="订单类型是否为市价单" style="rhombus;whiteSpace=wrap;html=1;shadow=0;fontFamily=Helvetica;fontSize=12;align=center;strokeWidth=1;spacing=6;spacingTop=-4;" parent="WIyWlLk6GJQsqaUBKTNV-1" vertex="1">
          <mxGeometry x="170" y="290" width="100" height="80" as="geometry" />
        </mxCell>
        <mxCell id="h7A2LRsJtxxZ7yJCECU2-7" style="edgeStyle=orthogonalEdgeStyle;rounded=0;orthogonalLoop=1;jettySize=auto;html=1;exitX=1;exitY=0.5;exitDx=0;exitDy=0;entryX=0;entryY=0.5;entryDx=0;entryDy=0;" edge="1" parent="WIyWlLk6GJQsqaUBKTNV-1" source="h7A2LRsJtxxZ7yJCECU2-3" target="h7A2LRsJtxxZ7yJCECU2-6">
          <mxGeometry relative="1" as="geometry" />
        </mxCell>
        <mxCell id="h7A2LRsJtxxZ7yJCECU2-3" value="通过订单的模式推断turnover和volume" style="shape=parallelogram;perimeter=parallelogramPerimeter;whiteSpace=wrap;html=1;fixedSize=1;" vertex="1" parent="WIyWlLk6GJQsqaUBKTNV-1">
          <mxGeometry x="310" y="300" width="150" height="60" as="geometry" />
        </mxCell>
        <mxCell id="h7A2LRsJtxxZ7yJCECU2-9" style="edgeStyle=orthogonalEdgeStyle;rounded=0;orthogonalLoop=1;jettySize=auto;html=1;exitX=1;exitY=0.5;exitDx=0;exitDy=0;entryX=0;entryY=0.5;entryDx=0;entryDy=0;" edge="1" parent="WIyWlLk6GJQsqaUBKTNV-1" source="h7A2LRsJtxxZ7yJCECU2-6" target="h7A2LRsJtxxZ7yJCECU2-8">
          <mxGeometry relative="1" as="geometry" />
        </mxCell>
        <mxCell id="h7A2LRsJtxxZ7yJCECU2-10" value="买入" style="edgeLabel;html=1;align=center;verticalAlign=middle;resizable=0;points=[];" vertex="1" connectable="0" parent="h7A2LRsJtxxZ7yJCECU2-9">
          <mxGeometry x="-0.12" relative="1" as="geometry">
            <mxPoint as="offset" />
          </mxGeometry>
        </mxCell>
        <mxCell id="h7A2LRsJtxxZ7yJCECU2-12" style="edgeStyle=orthogonalEdgeStyle;rounded=0;orthogonalLoop=1;jettySize=auto;html=1;exitX=0.5;exitY=1;exitDx=0;exitDy=0;entryX=0.5;entryY=0;entryDx=0;entryDy=0;" edge="1" parent="WIyWlLk6GJQsqaUBKTNV-1" source="h7A2LRsJtxxZ7yJCECU2-6" target="h7A2LRsJtxxZ7yJCECU2-11">
          <mxGeometry relative="1" as="geometry" />
        </mxCell>
        <mxCell id="h7A2LRsJtxxZ7yJCECU2-13" value="卖出" style="edgeLabel;html=1;align=center;verticalAlign=middle;resizable=0;points=[];" vertex="1" connectable="0" parent="h7A2LRsJtxxZ7yJCECU2-12">
          <mxGeometry x="0.1733" relative="1" as="geometry">
            <mxPoint as="offset" />
          </mxGeometry>
        </mxCell>
        <mxCell id="h7A2LRsJtxxZ7yJCECU2-6" value="订单方向" style="rhombus;whiteSpace=wrap;html=1;" vertex="1" parent="WIyWlLk6GJQsqaUBKTNV-1">
          <mxGeometry x="490" y="300" width="80" height="60" as="geometry" />
        </mxCell>
        <mxCell id="h7A2LRsJtxxZ7yJCECU2-15" style="edgeStyle=orthogonalEdgeStyle;rounded=0;orthogonalLoop=1;jettySize=auto;html=1;exitX=1;exitY=0.5;exitDx=0;exitDy=0;entryX=0;entryY=0.5;entryDx=0;entryDy=0;" edge="1" parent="WIyWlLk6GJQsqaUBKTNV-1" source="h7A2LRsJtxxZ7yJCECU2-8" target="h7A2LRsJtxxZ7yJCECU2-14">
          <mxGeometry relative="1" as="geometry" />
        </mxCell>
        <mxCell id="h7A2LRsJtxxZ7yJCECU2-17" value="Yes" style="edgeLabel;html=1;align=center;verticalAlign=middle;resizable=0;points=[];" vertex="1" connectable="0" parent="h7A2LRsJtxxZ7yJCECU2-15">
          <mxGeometry x="-0.152" y="4" relative="1" as="geometry">
            <mxPoint as="offset" />
          </mxGeometry>
        </mxCell>
        <mxCell id="h7A2LRsJtxxZ7yJCECU2-18" style="edgeStyle=orthogonalEdgeStyle;rounded=0;orthogonalLoop=1;jettySize=auto;html=1;exitX=0.5;exitY=1;exitDx=0;exitDy=0;entryX=0.5;entryY=0;entryDx=0;entryDy=0;" edge="1" parent="WIyWlLk6GJQsqaUBKTNV-1" source="h7A2LRsJtxxZ7yJCECU2-8" target="h7A2LRsJtxxZ7yJCECU2-16">
          <mxGeometry relative="1" as="geometry" />
        </mxCell>
        <mxCell id="h7A2LRsJtxxZ7yJCECU2-19" value="No" style="edgeLabel;html=1;align=center;verticalAlign=middle;resizable=0;points=[];" vertex="1" connectable="0" parent="h7A2LRsJtxxZ7yJCECU2-18">
          <mxGeometry x="-0.3511" y="-2" relative="1" as="geometry">
            <mxPoint as="offset" />
          </mxGeometry>
        </mxCell>
        <mxCell id="h7A2LRsJtxxZ7yJCECU2-8" value="现金是否充足" style="rhombus;whiteSpace=wrap;html=1;" vertex="1" parent="WIyWlLk6GJQsqaUBKTNV-1">
          <mxGeometry x="630" y="295" width="90" height="70" as="geometry" />
        </mxCell>
        <mxCell id="h7A2LRsJtxxZ7yJCECU2-26" style="edgeStyle=orthogonalEdgeStyle;rounded=0;orthogonalLoop=1;jettySize=auto;html=1;exitX=1;exitY=0.5;exitDx=0;exitDy=0;entryX=0;entryY=0.5;entryDx=0;entryDy=0;" edge="1" parent="WIyWlLk6GJQsqaUBKTNV-1" source="h7A2LRsJtxxZ7yJCECU2-11" target="h7A2LRsJtxxZ7yJCECU2-23">
          <mxGeometry relative="1" as="geometry" />
        </mxCell>
        <mxCell id="h7A2LRsJtxxZ7yJCECU2-27" value="No" style="edgeLabel;html=1;align=center;verticalAlign=middle;resizable=0;points=[];" vertex="1" connectable="0" parent="h7A2LRsJtxxZ7yJCECU2-26">
          <mxGeometry x="-0.0335" y="-4" relative="1" as="geometry">
            <mxPoint y="-5" as="offset" />
          </mxGeometry>
        </mxCell>
        <mxCell id="h7A2LRsJtxxZ7yJCECU2-34" style="edgeStyle=orthogonalEdgeStyle;rounded=0;orthogonalLoop=1;jettySize=auto;html=1;exitX=0.5;exitY=1;exitDx=0;exitDy=0;entryX=0.5;entryY=0;entryDx=0;entryDy=0;" edge="1" parent="WIyWlLk6GJQsqaUBKTNV-1" source="h7A2LRsJtxxZ7yJCECU2-11" target="h7A2LRsJtxxZ7yJCECU2-30">
          <mxGeometry relative="1" as="geometry" />
        </mxCell>
        <mxCell id="h7A2LRsJtxxZ7yJCECU2-35" value="Yes" style="edgeLabel;html=1;align=center;verticalAlign=middle;resizable=0;points=[];" vertex="1" connectable="0" parent="h7A2LRsJtxxZ7yJCECU2-34">
          <mxGeometry x="-0.4053" y="3" relative="1" as="geometry">
            <mxPoint as="offset" />
          </mxGeometry>
        </mxCell>
        <mxCell id="h7A2LRsJtxxZ7yJCECU2-11" value="检查是否有正向持仓" style="rhombus;whiteSpace=wrap;html=1;" vertex="1" parent="WIyWlLk6GJQsqaUBKTNV-1">
          <mxGeometry x="462.5" y="470" width="135" height="70" as="geometry" />
        </mxCell>
        <mxCell id="h7A2LRsJtxxZ7yJCECU2-14" value="买入单成交" style="rounded=1;whiteSpace=wrap;html=1;" vertex="1" parent="WIyWlLk6GJQsqaUBKTNV-1">
          <mxGeometry x="770" y="305" width="100" height="50" as="geometry" />
        </mxCell>
        <mxCell id="h7A2LRsJtxxZ7yJCECU2-16" value="现金不足失败" style="rounded=1;whiteSpace=wrap;html=1;" vertex="1" parent="WIyWlLk6GJQsqaUBKTNV-1">
          <mxGeometry x="625" y="410" width="100" height="50" as="geometry" />
        </mxCell>
        <mxCell id="h7A2LRsJtxxZ7yJCECU2-29" value="No" style="edgeStyle=orthogonalEdgeStyle;rounded=0;orthogonalLoop=1;jettySize=auto;html=1;exitX=1;exitY=0.5;exitDx=0;exitDy=0;" edge="1" parent="WIyWlLk6GJQsqaUBKTNV-1" source="h7A2LRsJtxxZ7yJCECU2-23" target="h7A2LRsJtxxZ7yJCECU2-28">
          <mxGeometry relative="1" as="geometry" />
        </mxCell>
        <mxCell id="h7A2LRsJtxxZ7yJCECU2-32" style="edgeStyle=orthogonalEdgeStyle;rounded=0;orthogonalLoop=1;jettySize=auto;html=1;exitX=0.5;exitY=1;exitDx=0;exitDy=0;entryX=0.5;entryY=0;entryDx=0;entryDy=0;" edge="1" parent="WIyWlLk6GJQsqaUBKTNV-1" source="h7A2LRsJtxxZ7yJCECU2-23" target="h7A2LRsJtxxZ7yJCECU2-31">
          <mxGeometry relative="1" as="geometry" />
        </mxCell>
        <mxCell id="h7A2LRsJtxxZ7yJCECU2-33" value="Yes" style="edgeLabel;html=1;align=center;verticalAlign=middle;resizable=0;points=[];" vertex="1" connectable="0" parent="h7A2LRsJtxxZ7yJCECU2-32">
          <mxGeometry x="0.0705" y="2" relative="1" as="geometry">
            <mxPoint as="offset" />
          </mxGeometry>
        </mxCell>
        <mxCell id="h7A2LRsJtxxZ7yJCECU2-23" value="检查现金是否满足初始保证金" style="rhombus;whiteSpace=wrap;html=1;" vertex="1" parent="WIyWlLk6GJQsqaUBKTNV-1">
          <mxGeometry x="810" y="460" width="140" height="85" as="geometry" />
        </mxCell>
        <mxCell id="h7A2LRsJtxxZ7yJCECU2-28" value="保证金不足失败" style="rounded=1;whiteSpace=wrap;html=1;" vertex="1" parent="WIyWlLk6GJQsqaUBKTNV-1">
          <mxGeometry x="1003" y="472.5" width="120" height="60" as="geometry" />
        </mxCell>
        <mxCell id="h7A2LRsJtxxZ7yJCECU2-37" style="edgeStyle=orthogonalEdgeStyle;rounded=0;orthogonalLoop=1;jettySize=auto;html=1;exitX=0.5;exitY=1;exitDx=0;exitDy=0;entryX=0.5;entryY=0;entryDx=0;entryDy=0;" edge="1" parent="WIyWlLk6GJQsqaUBKTNV-1" source="h7A2LRsJtxxZ7yJCECU2-30" target="h7A2LRsJtxxZ7yJCECU2-36">
          <mxGeometry relative="1" as="geometry" />
        </mxCell>
        <mxCell id="h7A2LRsJtxxZ7yJCECU2-38" value="Yes" style="edgeLabel;html=1;align=center;verticalAlign=middle;resizable=0;points=[];" vertex="1" connectable="0" parent="h7A2LRsJtxxZ7yJCECU2-37">
          <mxGeometry x="-0.08" y="-2" relative="1" as="geometry">
            <mxPoint as="offset" />
          </mxGeometry>
        </mxCell>
        <mxCell id="h7A2LRsJtxxZ7yJCECU2-41" value="No" style="edgeStyle=orthogonalEdgeStyle;rounded=0;orthogonalLoop=1;jettySize=auto;html=1;exitX=1;exitY=0.5;exitDx=0;exitDy=0;entryX=0;entryY=0.5;entryDx=0;entryDy=0;" edge="1" parent="WIyWlLk6GJQsqaUBKTNV-1" source="h7A2LRsJtxxZ7yJCECU2-30" target="h7A2LRsJtxxZ7yJCECU2-40">
          <mxGeometry relative="1" as="geometry" />
        </mxCell>
        <mxCell id="h7A2LRsJtxxZ7yJCECU2-30" value="正向持仓是否充足" style="rhombus;whiteSpace=wrap;html=1;" vertex="1" parent="WIyWlLk6GJQsqaUBKTNV-1">
          <mxGeometry x="475" y="670" width="110" height="80" as="geometry" />
        </mxCell>
        <mxCell id="h7A2LRsJtxxZ7yJCECU2-31" value="卖出单成交" style="rounded=1;whiteSpace=wrap;html=1;" vertex="1" parent="WIyWlLk6GJQsqaUBKTNV-1">
          <mxGeometry x="820" y="597.5" width="120" height="60" as="geometry" />
        </mxCell>
        <mxCell id="h7A2LRsJtxxZ7yJCECU2-36" value="卖出单成交" style="rounded=1;whiteSpace=wrap;html=1;" vertex="1" parent="WIyWlLk6GJQsqaUBKTNV-1">
          <mxGeometry x="470" y="820" width="120" height="60" as="geometry" />
        </mxCell>
        <mxCell id="h7A2LRsJtxxZ7yJCECU2-44" style="edgeStyle=orthogonalEdgeStyle;rounded=0;orthogonalLoop=1;jettySize=auto;html=1;exitX=1;exitY=0.5;exitDx=0;exitDy=0;entryX=0;entryY=0.5;entryDx=0;entryDy=0;" edge="1" parent="WIyWlLk6GJQsqaUBKTNV-1" source="h7A2LRsJtxxZ7yJCECU2-40" target="h7A2LRsJtxxZ7yJCECU2-23">
          <mxGeometry relative="1" as="geometry" />
        </mxCell>
        <mxCell id="h7A2LRsJtxxZ7yJCECU2-40" value="计算差额" style="shape=parallelogram;perimeter=parallelogramPerimeter;whiteSpace=wrap;html=1;fixedSize=1;" vertex="1" parent="WIyWlLk6GJQsqaUBKTNV-1">
          <mxGeometry x="650" y="680" width="120" height="60" as="geometry" />
        </mxCell>
        <mxCell id="h7A2LRsJtxxZ7yJCECU2-50" style="edgeStyle=orthogonalEdgeStyle;rounded=0;orthogonalLoop=1;jettySize=auto;html=1;exitX=0;exitY=0.5;exitDx=0;exitDy=0;entryX=1;entryY=0.5;entryDx=0;entryDy=0;" edge="1" parent="WIyWlLk6GJQsqaUBKTNV-1" source="h7A2LRsJtxxZ7yJCECU2-46" target="h7A2LRsJtxxZ7yJCECU2-49">
          <mxGeometry relative="1" as="geometry" />
        </mxCell>
        <mxCell id="h7A2LRsJtxxZ7yJCECU2-51" value="Yes" style="edgeStyle=orthogonalEdgeStyle;rounded=0;orthogonalLoop=1;jettySize=auto;html=1;" edge="1" parent="WIyWlLk6GJQsqaUBKTNV-1" source="h7A2LRsJtxxZ7yJCECU2-46" target="h7A2LRsJtxxZ7yJCECU2-49">
          <mxGeometry relative="1" as="geometry" />
        </mxCell>
        <mxCell id="h7A2LRsJtxxZ7yJCECU2-69" value="No" style="edgeStyle=orthogonalEdgeStyle;rounded=0;orthogonalLoop=1;jettySize=auto;html=1;exitX=0.5;exitY=1;exitDx=0;exitDy=0;entryX=0.5;entryY=0;entryDx=0;entryDy=0;" edge="1" parent="WIyWlLk6GJQsqaUBKTNV-1" source="h7A2LRsJtxxZ7yJCECU2-46" target="h7A2LRsJtxxZ7yJCECU2-68">
          <mxGeometry relative="1" as="geometry" />
        </mxCell>
        <mxCell id="h7A2LRsJtxxZ7yJCECU2-46" value="订单类型是否为限价单" style="rhombus;whiteSpace=wrap;html=1;" vertex="1" parent="WIyWlLk6GJQsqaUBKTNV-1">
          <mxGeometry x="140" y="420" width="160" height="100" as="geometry" />
        </mxCell>
        <mxCell id="h7A2LRsJtxxZ7yJCECU2-62" style="edgeStyle=orthogonalEdgeStyle;rounded=0;orthogonalLoop=1;jettySize=auto;html=1;exitX=0;exitY=0.5;exitDx=0;exitDy=0;entryX=1;entryY=0.5;entryDx=0;entryDy=0;" edge="1" parent="WIyWlLk6GJQsqaUBKTNV-1" source="h7A2LRsJtxxZ7yJCECU2-49" target="h7A2LRsJtxxZ7yJCECU2-54">
          <mxGeometry relative="1" as="geometry" />
        </mxCell>
        <mxCell id="h7A2LRsJtxxZ7yJCECU2-49" value="通过订单的模式和订单价格推断turnover和volume" style="shape=parallelogram;perimeter=parallelogramPerimeter;whiteSpace=wrap;html=1;fixedSize=1;" vertex="1" parent="WIyWlLk6GJQsqaUBKTNV-1">
          <mxGeometry x="-100" y="430" width="210" height="80" as="geometry" />
        </mxCell>
        <mxCell id="h7A2LRsJtxxZ7yJCECU2-61" value="No" style="edgeStyle=orthogonalEdgeStyle;rounded=0;orthogonalLoop=1;jettySize=auto;html=1;exitX=0.5;exitY=1;exitDx=0;exitDy=0;entryX=0.5;entryY=0;entryDx=0;entryDy=0;" edge="1" parent="WIyWlLk6GJQsqaUBKTNV-1" source="h7A2LRsJtxxZ7yJCECU2-54" target="h7A2LRsJtxxZ7yJCECU2-60">
          <mxGeometry relative="1" as="geometry" />
        </mxCell>
        <mxCell id="h7A2LRsJtxxZ7yJCECU2-66" style="edgeStyle=orthogonalEdgeStyle;rounded=0;orthogonalLoop=1;jettySize=auto;html=1;exitX=0;exitY=0.5;exitDx=0;exitDy=0;entryX=0.5;entryY=0;entryDx=0;entryDy=0;" edge="1" parent="WIyWlLk6GJQsqaUBKTNV-1" source="h7A2LRsJtxxZ7yJCECU2-54" target="h7A2LRsJtxxZ7yJCECU2-6">
          <mxGeometry relative="1" as="geometry">
            <Array as="points">
              <mxPoint x="-350" y="470" />
              <mxPoint x="-350" y="60" />
              <mxPoint x="530" y="60" />
            </Array>
          </mxGeometry>
        </mxCell>
        <mxCell id="h7A2LRsJtxxZ7yJCECU2-67" value="Yes" style="edgeLabel;html=1;align=center;verticalAlign=middle;resizable=0;points=[];" vertex="1" connectable="0" parent="h7A2LRsJtxxZ7yJCECU2-66">
          <mxGeometry x="0.1405" y="-2" relative="1" as="geometry">
            <mxPoint as="offset" />
          </mxGeometry>
        </mxCell>
        <mxCell id="h7A2LRsJtxxZ7yJCECU2-54" value="触发价格是否处于波动范围内" style="rhombus;whiteSpace=wrap;html=1;" vertex="1" parent="WIyWlLk6GJQsqaUBKTNV-1">
          <mxGeometry x="-330" y="420" width="200" height="100" as="geometry" />
        </mxCell>
        <mxCell id="h7A2LRsJtxxZ7yJCECU2-60" value="订单维持" style="rounded=1;whiteSpace=wrap;html=1;" vertex="1" parent="WIyWlLk6GJQsqaUBKTNV-1">
          <mxGeometry x="-290" y="640" width="120" height="60" as="geometry" />
        </mxCell>
        <mxCell id="h7A2LRsJtxxZ7yJCECU2-75" style="edgeStyle=orthogonalEdgeStyle;rounded=0;orthogonalLoop=1;jettySize=auto;html=1;exitX=0;exitY=0.5;exitDx=0;exitDy=0;entryX=1;entryY=0.5;entryDx=0;entryDy=0;" edge="1" parent="WIyWlLk6GJQsqaUBKTNV-1" source="h7A2LRsJtxxZ7yJCECU2-68" target="h7A2LRsJtxxZ7yJCECU2-73">
          <mxGeometry relative="1" as="geometry" />
        </mxCell>
        <mxCell id="h7A2LRsJtxxZ7yJCECU2-68" value="订单类型是否为止盈/止损" style="rhombus;whiteSpace=wrap;html=1;" vertex="1" parent="WIyWlLk6GJQsqaUBKTNV-1">
          <mxGeometry x="130" y="720" width="180" height="110" as="geometry" />
        </mxCell>
        <mxCell id="h7A2LRsJtxxZ7yJCECU2-76" style="edgeStyle=orthogonalEdgeStyle;rounded=0;orthogonalLoop=1;jettySize=auto;html=1;exitX=0;exitY=0.5;exitDx=0;exitDy=0;entryX=1;entryY=0.5;entryDx=0;entryDy=0;" edge="1" parent="WIyWlLk6GJQsqaUBKTNV-1" source="h7A2LRsJtxxZ7yJCECU2-73" target="h7A2LRsJtxxZ7yJCECU2-74">
          <mxGeometry relative="1" as="geometry" />
        </mxCell>
        <mxCell id="h7A2LRsJtxxZ7yJCECU2-73" value="通过触发波动计算触发价格" style="shape=parallelogram;perimeter=parallelogramPerimeter;whiteSpace=wrap;html=1;fixedSize=1;" vertex="1" parent="WIyWlLk6GJQsqaUBKTNV-1">
          <mxGeometry x="-110" y="740" width="190" height="70" as="geometry" />
        </mxCell>
        <mxCell id="h7A2LRsJtxxZ7yJCECU2-77" style="edgeStyle=orthogonalEdgeStyle;rounded=0;orthogonalLoop=1;jettySize=auto;html=1;exitX=0;exitY=0.5;exitDx=0;exitDy=0;entryX=1;entryY=0.5;entryDx=0;entryDy=0;" edge="1" parent="WIyWlLk6GJQsqaUBKTNV-1" source="h7A2LRsJtxxZ7yJCECU2-74" target="h7A2LRsJtxxZ7yJCECU2-54">
          <mxGeometry relative="1" as="geometry">
            <Array as="points">
              <mxPoint x="-350" y="720" />
              <mxPoint x="-110" y="720" />
              <mxPoint x="-110" y="470" />
            </Array>
          </mxGeometry>
        </mxCell>
        <mxCell id="h7A2LRsJtxxZ7yJCECU2-74" value="通过订单的模式和订单价格推断turnover和volume" style="shape=parallelogram;perimeter=parallelogramPerimeter;whiteSpace=wrap;html=1;fixedSize=1;" vertex="1" parent="WIyWlLk6GJQsqaUBKTNV-1">
          <mxGeometry x="-360" y="735" width="210" height="80" as="geometry" />
        </mxCell>
      </root>
    </mxGraphModel>
  </diagram>
</mxfile>
